<?xml version="1.0" encoding="UTF-8"?>
<svg id="Capa_1" data-name="Capa 1" xmlns="http://www.w3.org/2000/svg" viewBox="0 0 437.08 361.84">
  <defs>
    <style>
      .cls-1 {
        fill: none;
        stroke-width: 12px;
      }

      .cls-1, .cls-2 {
        stroke: #ffffff;
        stroke-miterlimit: 10;
      }

      .cls-3 {
        fill: #ffffff;
      }

      .cls-4, .cls-2 {
        fill: #ffffff;
      }

      .cls-5 {
        opacity: .99;
      }
    </style>
  </defs>
  <g class="cls-5">
    <path class="cls-4" d="M0,180.31c0-55.96,0-111.93,0-167.89C0,2.31,1.81,.5,11.91,.5c32.48,0,64.96,0,97.45,.03,1.98,0,3.99,.16,5.92,.56,3.17,.65,4.8,2.63,4.76,6.02-.04,3.47-2.08,5.18-5.04,5.91-1.74,.43-3.63,.32-5.46,.32-30.48,.02-60.97,.1-91.45-.08-4.25-.02-5.22,1.29-5.21,5.35,.11,108.1,.12,216.2-.03,324.29,0,4.87,1.63,5.69,5.97,5.66,29.15-.19,58.3-.14,87.45-.16,7.05,0,10.54,2.13,10.6,6.41,.06,4.47-3.14,6.53-10.31,6.54-31.98,.05-63.96,.1-95.95,.12-8.18,0-10.59-2.46-10.6-10.77C0,293.9,0,237.11,0,180.31Z"/>
    <path class="cls-2" d="M436.58,180.91c0,56.11,0,112.22,0,168.33,0,10.05-1.97,12.11-11.77,12.1-31.65-.03-63.3-.08-94.95-.13-1,0-2,.02-3-.04-3.95-.22-6.9-1.89-7.07-6.17-.17-4.37,2.98-6,6.7-6.63,1.62-.28,3.32-.1,4.99-.1,28.98,.02,57.97-.03,86.95,.17,4.2,.03,5.28-1.21,5.27-5.33-.11-108.22-.11-216.45,.01-324.67,0-4.3-1.37-5.19-5.39-5.17-29.98,.16-59.97,.09-89.95,.08-1.83,0-3.69,.15-5.49-.09-3.38-.46-6.03-1.84-6.32-5.81-.31-4.26,2.22-6.03,5.85-6.69,1.78-.32,3.65-.24,5.48-.24,32.48-.01,64.96-.01,97.45,0,9.14,0,11.24,2.06,11.24,11.08,0,56.44,0,112.89,0,169.33Z"/>
    <circle class="cls-1" cx="218.4" cy="182.29" r="122.86"/>
    <path class="cls-3" d="M233.44,91.39c41.11-1.61,78.9,34.78,77.35,76.7-.09,2.5,.04,5-.08,7.49-.09,2.05,.46,4.86-2.89,4.68-3.39-.19-1.98-3.04-1.8-4.64,1.63-14.72-1.33-28.59-8.42-41.38-12.7-22.91-32.3-35.58-58.49-38.12-4.36-.42-8.62-.23-12.91,.16-2.38,.22-4.15-.52-4.22-2.98-.07-2.68,2.34-1.78,3.77-1.86,2.82-.17,5.66-.05,7.68-.05Z"/>
  </g>
</svg>